<?xml version="1.0" encoding="UTF-8"?>
<svg version="1.1" xmlns="http://www.w3.org/2000/svg" width="500" height="500">
<path d="M0 0 C0.95429398 -0.00860046 1.90858795 -0.01720093 2.89179993 -0.02606201 C3.9477536 -0.03032196 5.00370728 -0.03458191 6.09165955 -0.03897095 C7.19751907 -0.04714844 8.3033786 -0.05532593 9.44274902 -0.06375122 C13.12641351 -0.08868819 16.81003894 -0.10515225 20.49375916 -0.11953735 C21.75264891 -0.12486103 23.01153866 -0.13018471 24.30857658 -0.13566971 C29.60914729 -0.15692923 34.90970433 -0.1760525 40.21030521 -0.1872921 C47.77807699 -0.2034469 55.34532825 -0.23638177 62.91290385 -0.29369295 C68.89242116 -0.33740705 74.87170603 -0.35307298 80.85139275 -0.35942459 C83.380886 -0.36610372 85.91037273 -0.38123757 88.43976021 -0.4053154 C113.13777209 -0.62679415 131.160012 3.62871816 149.64610291 20.77890015 C163.89785137 35.54166748 168.14576385 53.91237233 167.85704041 73.7437439 C167.25334182 90.83558661 159.57691595 105.26003414 147.58360291 117.15390015 C146.49498962 118.31018921 146.49498962 118.31018921 145.38438416 119.48983765 C140.62278034 124.22718882 135.55883135 127.56473442 129.58360291 130.52890015 C128.96291931 130.85068237 128.34223572 131.1724646 127.70274353 131.5039978 C114.52989286 137.60337601 98.87233312 137.59435261 84.63829041 137.4468689 C83.00492245 137.44125102 81.37154933 137.43699135 79.73817444 137.43400574 C75.50665008 137.42272892 71.27545086 137.3934172 67.04405212 137.3598938 C62.6992075 137.32881524 58.35430866 137.31542097 54.00938416 137.30038452 C45.53397703 137.26852478 37.05883077 137.2175459 28.58360291 137.15390015 C29.18641098 130.35258658 30.90191662 124.19579279 32.92735291 117.6890564 C33.25650696 116.61514145 33.58566101 115.5412265 33.92478943 114.43476868 C34.6176542 112.17896497 35.31371597 109.924141 36.01280212 107.67025757 C37.08697869 104.20551158 38.1505189 100.73763291 39.21250916 97.26913452 C39.88767222 95.07558478 40.56343221 92.88221866 41.23985291 90.6890564 C41.71956543 89.1267202 41.71956543 89.1267202 42.20896912 87.53282166 C42.50597717 86.57770187 42.80298523 85.62258209 43.10899353 84.63851929 C43.3702301 83.7943898 43.63146667 82.95026031 43.90061951 82.08055115 C44.58360291 80.15390015 44.58360291 80.15390015 45.58360291 79.15390015 C47.30632059 79.05690788 49.03296183 79.02874128 50.75840759 79.02792358 C52.41582977 79.02221344 52.41582977 79.02221344 54.10673523 79.01638794 C55.31082031 79.01536072 56.5149054 79.0143335 57.75547791 79.01327515 C60.28152858 78.99494615 62.8075705 78.97537575 65.33360291 78.9546814 C69.33440718 78.92569718 73.33465679 78.90157715 77.33555603 78.90341187 C81.18437506 78.90008244 85.03188545 78.86555372 88.88047791 78.82577515 C90.67446014 78.8363797 90.67446014 78.8363797 92.50468445 78.84719849 C99.24353022 78.95678026 99.24353022 78.95678026 104.87364197 75.77597046 C106.81023588 73.30891681 106.81023588 73.30891681 106.64610291 70.52890015 C105.34214361 67.6141676 104.33347518 66.76561558 101.58360291 65.15390015 C98.43517583 64.68174678 98.43517583 64.68174678 94.88731384 64.7215271 C94.22348694 64.71133545 93.55966003 64.7011438 92.87571716 64.69064331 C90.68971794 64.66053917 88.50415709 64.65125183 86.31797791 64.6421814 C84.79910326 64.6253327 83.28024254 64.6071822 81.76139832 64.58778381 C77.76988578 64.54029797 73.77842972 64.51047968 69.78672791 64.48434448 C65.71109362 64.45453167 61.63565389 64.40800386 57.56016541 64.36288452 C49.56807352 64.27686758 41.57596389 64.20951537 33.58360291 64.15390015 C33.36067566 65.44682983 33.13774841 66.73975952 32.9080658 68.0718689 C31.31155193 76.02630082 28.78792464 83.72536272 26.39219666 91.46640015 C25.88140885 93.12871948 25.37100365 94.79115643 24.86096191 96.45370483 C23.79728694 99.91735841 22.73043455 103.38001032 21.66099548 106.84188843 C20.28891546 111.28364958 18.92271875 115.72719235 17.5585928 120.17140198 C16.50753782 123.59470457 15.45452235 127.01740128 14.40078926 130.43988037 C13.89607182 132.07927645 13.39171017 133.71878211 12.88770866 135.35839844 C12.18587922 137.63976144 11.4816787 139.92037805 10.77671814 142.20077515 C10.56838852 142.87917953 10.3600589 143.55758392 10.14541626 144.25654602 C8.69825932 148.92458732 8.69825932 148.92458732 7.58360291 151.15390015 C27.71360291 151.15390015 47.84360291 151.15390015 68.58360291 151.15390015 C67.07923169 154.9148282 65.91451659 157.38256237 63.68907166 160.59921265 C63.07902283 161.48777954 62.468974 162.37634644 61.84043884 163.2918396 C61.15755798 164.27756958 60.47467712 165.26329956 59.77110291 166.27890015 C58.21678168 168.54519309 56.66346968 170.81215806 55.11094666 173.0796814 C54.68383392 173.70249496 54.25672119 174.32530853 53.81666565 174.96699524 C47.78116061 183.77221087 41.80590311 192.61824336 35.83360291 201.46640015 C35.2223053 202.37181549 34.61100769 203.27723083 33.98118591 204.21008301 C22.44975353 221.29957844 11.07662043 238.49116317 -0.23918152 255.72401428 C-1.88517001 258.22933086 -3.53361068 260.73301846 -5.18251038 263.23641968 C-7.41532305 266.62649059 -9.63514018 270.02470278 -11.84950256 273.42684937 C-12.94316867 275.0951426 -14.03707184 276.76328045 -15.13124084 278.4312439 C-15.63514847 279.21117203 -16.13905609 279.99110016 -16.65823364 280.79466248 C-17.85873991 282.61657488 -19.13064049 284.3911154 -20.41639709 286.15390015 C-21.07639709 286.15390015 -21.73639709 286.15390015 -22.41639709 286.15390015 C-18.85264407 267.9446084 -15.03070371 249.79731482 -11.11268616 231.66171265 C-10.31117664 227.95161647 -9.51294942 224.24082236 -8.71558762 220.52983284 C-8.09401299 217.63858617 -7.47082453 214.74768926 -6.84712982 211.85689926 C-6.55160546 210.48627087 -6.25656982 209.11553701 -5.96204376 207.74469376 C-5.55491396 205.85095731 -5.14538199 203.95773778 -4.73573303 202.06454468 C-4.38862274 200.45556808 -4.38862274 200.45556808 -4.03450012 198.81408691 C-3.41639709 196.15390015 -3.41639709 196.15390015 -2.41639709 193.15390015 C-20.89639709 193.15390015 -39.37639709 193.15390015 -58.41639709 193.15390015 C-57.29139928 184.1539176 -57.29139928 184.1539176 -56.36100769 180.8842926 C-56.15153535 180.13726295 -55.94206301 179.39023329 -55.72624302 178.62056637 C-55.49782687 177.82872228 -55.26941072 177.03687819 -55.03407288 176.22103882 C-54.79098105 175.36059999 -54.54788923 174.50016115 -54.29743099 173.61364841 C-53.49106768 170.76478299 -52.6764119 167.91835974 -51.86170959 165.0718689 C-51.2862805 163.04517951 -50.71137643 161.01834098 -50.13696289 158.99136353 C-48.59699352 153.56252046 -47.04993587 148.13572098 -45.50156021 142.70927048 C-43.89913479 137.08859941 -42.30342455 131.46602306 -40.70716858 125.84359741 C-38.15016611 116.83997061 -35.58968423 107.83734137 -33.02626038 98.83554077 C-28.76541462 83.87236203 -24.52014691 68.9047819 -20.27779007 53.93635273 C-18.917433 49.13694666 -17.55528796 44.33805087 -16.192276 39.53939819 C-15.4870295 37.05543169 -14.78178837 34.57146366 -14.07655334 32.0874939 C-13.75174988 30.94459396 -13.42694641 29.80169403 -13.09230042 28.62416077 C-11.65792732 23.56893916 -10.23418713 18.51145721 -8.84559631 13.44345093 C-8.61078049 12.58759903 -8.37596466 11.73174713 -8.1340332 10.84996033 C-7.70975779 9.29787911 -7.28842936 7.74498776 -6.87075806 6.19111633 C-5.19034206 0.03469043 -5.19034206 0.03469043 0 0 Z " fill="#8C52FF" transform="translate(58.41639709472656,106.84609985351563)"/>
<path d="M0 0 C3.62233673 2.88005462 5.58967558 5.13388896 6.96875 9.640625 C7.21775142 13.33082608 7.05802037 16.9359045 6.96875 20.640625 C1.35875 20.640625 -4.25125 20.640625 -10.03125 20.640625 C-10.74739583 18.58984375 -11.46354167 16.5390625 -12.1796875 14.48828125 C-12.88396413 12.45380384 -12.88396413 12.45380384 -15.03125 11.640625 C-16.98674256 11.51805039 -18.94695618 11.46510112 -20.90625 11.453125 C-21.95554687 11.43894531 -23.00484375 11.42476563 -24.0859375 11.41015625 C-27.02507925 11.64014214 -28.60841797 12.005485 -31.03125 13.640625 C-33.23265503 16.38757025 -33.23265503 16.38757025 -33.15625 19.140625 C-32.18867084 22.04549678 -32.18867084 22.04549678 -28.49609375 23.1484375 C-23.50810688 24.89200612 -18.41603578 26.26222341 -13.29882812 27.5703125 C-7.0028363 29.31187894 -1.9025826 31.92417445 1.90625 37.453125 C4.58579995 45.49177484 2.51956932 52.20505351 -1.03125 59.640625 C-5.56690159 67.28268748 -13.56352256 71.2989377 -21.85546875 73.7890625 C-26.07493567 74.76712097 -30.14857404 74.98654996 -34.46875 74.953125 C-35.21229736 74.94893555 -35.95584473 74.94474609 -36.72192383 74.94042969 C-44.87033751 74.77280722 -51.66095023 72.97389923 -58.03125 67.640625 C-63.13008681 61.33416894 -62.35821636 55.56955925 -62.03125 47.640625 C-56.09125 47.640625 -50.15125 47.640625 -44.03125 47.640625 C-43.680625 49.06375 -43.33 50.486875 -42.96875 51.953125 C-41.7190187 55.62710359 -41.29016159 56.46097206 -37.96875 58.765625 C-31.93990479 60.64325264 -26.02395149 59.61949591 -20.46875 56.890625 C-17.92238835 54.83488466 -17.92238835 54.83488466 -16.90625 52.140625 C-16.81010304 49.57846051 -16.81010304 49.57846051 -18.4296875 47.66796875 C-22.19134413 44.73658768 -26.21295201 43.89181478 -30.78125 42.703125 C-38.85399477 40.60109725 -45.73497888 38.18411645 -51.53125 31.953125 C-53.99548319 26.5112767 -54.05771862 21.68823758 -52.1484375 16.01953125 C-47.82904517 6.62270754 -42.08269825 1.65428886 -32.6796875 -2.4140625 C-22.42055493 -6.07587678 -9.26239401 -6.19867907 0 0 Z " fill="#8C52FF" transform="translate(492.03125,269.359375)"/>
<path d="M0 0 C1.39456452 0.00667256 2.78911118 0.01863093 4.18359375 0.03515625 C5.2499707 0.04192383 5.2499707 0.04192383 6.33789062 0.04882812 C8.09899388 0.06064761 9.86005411 0.07858362 11.62109375 0.09765625 C13.58327307 7.40062454 14.90032358 14.78840799 16.22265625 22.23046875 C16.46632632 23.59473321 16.71009226 24.95898056 16.95394897 26.32321167 C17.46182519 29.1687418 17.96745483 32.01466054 18.47167969 34.86083984 C19.11630081 38.49755103 19.76823342 42.13290951 20.42205238 45.76797676 C20.92662178 48.57955458 21.42645493 51.39195932 21.92496872 54.20461655 C22.16332915 55.54525983 22.40333804 56.88561116 22.64506912 58.22565079 C22.9826702 60.10023534 23.31300999 61.97612315 23.64306641 63.85205078 C23.92713852 65.44800583 23.92713852 65.44800583 24.21694946 67.07620239 C24.62109375 70.09765625 24.62109375 70.09765625 24.62109375 76.09765625 C18.35109375 76.09765625 12.08109375 76.09765625 5.62109375 76.09765625 C5.12609375 68.67265625 5.12609375 68.67265625 4.62109375 61.09765625 C-10.92324202 59.61044128 -10.92324202 59.61044128 -25.47412109 63.40478516 C-28.63184381 66.78915334 -30.06677019 70.68032944 -31.37890625 75.09765625 C-32.37890625 76.09765625 -32.37890625 76.09765625 -34.23657227 76.21118164 C-35.42271118 76.20332642 -35.42271118 76.20332642 -36.6328125 76.1953125 C-37.48681641 76.19208984 -38.34082031 76.18886719 -39.22070312 76.18554688 C-40.11853516 76.17716797 -41.01636719 76.16878906 -41.94140625 76.16015625 C-42.84310547 76.15564453 -43.74480469 76.15113281 -44.67382812 76.14648438 C-46.90891939 76.1346585 -49.14388062 76.11817845 -51.37890625 76.09765625 C-46.88506929 67.15102193 -41.42167758 58.89744071 -35.9375 50.5390625 C-32.3901572 45.1308505 -28.90774207 39.68304864 -25.44140625 34.22265625 C-24.87010986 33.32353516 -24.29881348 32.42441406 -23.71020508 31.49804688 C-21.27675894 27.66662014 -18.8456353 23.83372346 -16.41503906 20.00048828 C-14.46649392 16.92807566 -12.51647201 13.85660387 -10.56640625 10.78515625 C-9.65870483 9.35163818 -9.65870483 9.35163818 -8.73266602 7.88916016 C-8.17635498 7.01308105 -7.62004395 6.13700195 -7.046875 5.234375 C-6.55469482 4.45795654 -6.06251465 3.68153809 -5.55541992 2.8815918 C-3.7260179 0.10768838 -3.7260179 0.10768838 0 0 Z M-1.37890625 22.09765625 C-2.47391208 23.81002442 -3.51692173 25.55566456 -4.5390625 27.3125 C-5.16748047 28.39080078 -5.79589844 29.46910156 -6.44335938 30.58007812 C-7.10271484 31.72025391 -7.76207031 32.86042969 -8.44140625 34.03515625 C-9.43624023 35.73961914 -9.43624023 35.73961914 -10.45117188 37.47851562 C-13.66440014 42.04062791 -13.66440014 42.04062791 -15.37890625 47.09765625 C-9.43890625 47.09765625 -3.49890625 47.09765625 2.62109375 47.09765625 C1.63109375 38.84765625 0.64109375 30.59765625 -0.37890625 22.09765625 C-0.70890625 22.09765625 -1.03890625 22.09765625 -1.37890625 22.09765625 Z " fill="#8C52FF" transform="translate(151.37890625,265.90234375)"/>
<path d="M0 0 C14.85 0 29.7 0 45 0 C44 8 44 8 42 16 C28.635 16.495 28.635 16.495 15 17 C14.01 21.29 13.02 25.58 12 30 C20.25 30 28.5 30 37 30 C36 38 36 38 34 46 C25.42 46.33 16.84 46.66 8 47 C5.69 56.57 3.38 66.14 1 76 C-4.94 76 -10.88 76 -17 76 C-13.77441384 60.37506903 -10.26378192 44.82306168 -6.69903564 29.27233887 C-5.94007803 25.95982984 -5.18300434 22.64689026 -4.42578125 19.33398438 C-2.95249704 12.88886774 -1.47618763 6.44445497 0 0 Z " fill="#8C52FF" transform="translate(213,266)"/>
<path d="M0 0 C6.93 0 13.86 0 21 0 C22.50640038 3.60161201 24.00534134 7.20601881 25.5 10.8125 C25.92925781 11.83666016 26.35851562 12.86082031 26.80078125 13.91601562 C27.40986328 15.39038086 27.40986328 15.39038086 28.03125 16.89453125 C28.40830078 17.80050049 28.78535156 18.70646973 29.17382812 19.63989258 C30 22 30 22 30 25 C30.66 25 31.32 25 32 25 C32.24621094 24.43410156 32.49242187 23.86820312 32.74609375 23.28515625 C34.75992029 19.61509853 37.68170686 16.83861805 40.55078125 13.81640625 C43.07525463 11.07954092 43.07525463 11.07954092 44.85546875 7.90234375 C47.02814269 4.43054518 48.59402485 2.31813518 52 0 C58.89463699 -1.3437184 66.05426026 -0.67927834 73 0 C71.57567584 2.97816718 70.22096735 4.97931682 67.8125 7.25 C65.26329151 9.7202041 62.87180507 12.24154523 60.5625 14.9375 C57.5256156 18.46354699 54.29511119 21.72492921 50.98046875 24.98828125 C48.43949901 27.56934519 46.08075935 30.2819834 43.73828125 33.04296875 C42 35 42 35 39.52905273 37.11547852 C36.49487151 40.57612637 35.66739649 43.71858994 34.796875 48.109375 C34.62875305 48.87679016 34.4606311 49.64420532 34.28741455 50.43487549 C33.75738936 52.86986662 33.25288496 55.30927387 32.75 57.75 C32.22768406 60.20363675 31.70021244 62.65608598 31.16973877 65.10797119 C30.84219687 66.63027608 30.52037759 68.15382546 30.20477295 69.6786499 C29.10852223 74.89147777 29.10852223 74.89147777 28 76 C25.13732433 76.07325168 22.299281 76.09238205 19.4375 76.0625 C18.63119141 76.05798828 17.82488281 76.05347656 16.99414062 76.04882812 C14.99606244 76.03700518 12.99802217 76.01906914 11 76 C11.34523572 70.73378522 12.12342384 66.3602923 13.97265625 61.41015625 C18.67273699 47.79698583 18.82530145 39.12577758 12.79467773 26.25366211 C10.27615289 21.15484432 7.64354391 16.110442 4.81895447 11.17398071 C2.67069151 7.41178606 1.40229617 4.20688851 0 0 Z " fill="#8C52FF" transform="translate(352,266)"/>
<path d="M0 0 C20.13 0 40.26 0 61 0 C60.01 5.28 59.02 10.56 58 16 C50.74 16 43.48 16 36 16 C35.43667969 18.71089844 34.87335938 21.42179687 34.29296875 24.21484375 C32.27746241 33.83162239 30.12267286 43.41342539 27.90795898 52.98608398 C27.29931668 55.61954122 26.69546398 58.25407021 26.09179688 60.88867188 C25.70340787 62.57298192 25.31474699 64.2572293 24.92578125 65.94140625 C24.74662674 66.72455704 24.56747223 67.50770782 24.38288879 68.31459045 C23.1147041 73.77059181 23.1147041 73.77059181 22 76 C16.06 76 10.12 76 4 76 C5.67493296 68.47165735 7.35208121 60.94381487 9.03315639 53.41684151 C9.81361893 49.92192058 10.59310055 46.42678685 11.37036133 42.93115234 C12.26354081 38.91438882 13.16094837 34.89858039 14.05859375 30.8828125 C14.47739052 28.99527756 14.47739052 28.99527756 14.90464783 27.0696106 C15.16484207 25.90855804 15.42503632 24.74750549 15.69311523 23.55126953 C15.92183823 22.52534698 16.15056122 21.49942444 16.38621521 20.44241333 C17 18 17 18 18 16 C11.07 16 4.14 16 -3 16 C-2 7 -2 7 0 0 Z " fill="#8C52FF" transform="translate(277,266)"/>
</svg>
