<?xml version="1.0" encoding="UTF-8"?>
<svg version="1.1" xmlns="http://www.w3.org/2000/svg" width="500" height="500">
<path d="M0 0 C25.35742921 -0.09370605 50.71483222 -0.16410745 76.07240009 -0.20724869 C87.84804914 -0.22781801 99.62359021 -0.25583027 111.39916992 -0.30175781 C121.67038955 -0.34179868 131.94153091 -0.36747365 142.21282643 -0.37635398 C147.64449364 -0.38153966 153.07593708 -0.39360885 158.50753212 -0.42292023 C163.63506011 -0.45036274 168.76227523 -0.45838762 173.88986969 -0.45243073 C175.75731045 -0.45351822 177.62476326 -0.46129838 179.49213982 -0.4768219 C195.59244728 -0.60393488 211.30908197 1.32489608 226.25 7.6875 C227.07443604 8.02998779 227.89887207 8.37247559 228.74829102 8.7253418 C242.15254291 14.4637167 253.26535124 22.20518369 264 32 C264.72574219 32.64324219 265.45148438 33.28648438 266.19921875 33.94921875 C287.9637387 54.30103152 300.01807117 84.6012346 301.31640625 113.98828125 C302.17052139 145.45465934 292.71755099 172.55923337 273 197 C272.46632813 197.67546875 271.93265625 198.3509375 271.3828125 199.046875 C252.17328956 222.51364357 222.26713053 235.56671003 192.69433784 238.78759575 C187.39298536 239.20552025 182.08391353 239.12929993 176.76928711 239.11352539 C175.47074799 239.11367142 174.17220886 239.11381744 172.83432007 239.1139679 C169.29982767 239.11425297 165.76536971 239.10840333 162.23088527 239.10139394 C158.52734349 239.09511192 154.8238008 239.09455278 151.12025452 239.09336853 C144.11880995 239.09026945 137.11738114 239.08207535 130.11594349 239.07201904 C122.14007251 239.06081357 114.16420075 239.05533631 106.18832386 239.05032361 C89.79220671 239.03989145 73.39610537 239.02231974 57 239 C58.55158753 232.66379314 60.10670899 226.35289647 62.06542969 220.12768555 C62.44302429 218.9215007 62.8206189 217.71531586 63.20965576 216.47257996 C63.61368915 215.19394701 64.01776333 213.91532696 64.421875 212.63671875 C64.84955411 211.27417723 65.27689411 209.91152922 65.70391846 208.54878235 C66.82269702 204.98114223 67.94541643 201.41475576 69.06921387 197.84869385 C70.84881234 192.19925846 72.6223921 186.54792868 74.39619446 180.8966713 C74.82881311 179.5187576 75.26166302 178.14091649 75.69474792 176.76314926 C78.83983671 166.75720119 81.93377217 156.73680645 84.94500732 146.68962097 C85.20453186 145.8275856 85.4640564 144.96555023 85.73144531 144.07739258 C86.06562469 142.95981316 86.06562469 142.95981316 86.40655518 141.81965637 C87 140 87 140 88 138 C89.22917648 137.99413376 90.45835297 137.98826752 91.72477722 137.98222351 C103.30495506 137.92502664 114.88494456 137.85228075 126.46493053 137.76428509 C132.41841976 137.71954531 138.37183998 137.68029698 144.32543945 137.65356445 C150.07030097 137.62756771 155.81489745 137.58719066 161.55959511 137.53681374 C163.75201434 137.52012052 165.94447944 137.50862157 168.13695335 137.50238609 C171.20641279 137.49277189 174.27519039 137.46474401 177.34448242 137.43237305 C178.25222916 137.43380814 179.15997589 137.43524323 180.0952301 137.4367218 C184.87171673 137.36541557 188.14283757 137.1356561 192 134 C195.08730697 129.67777025 195.41721191 126.21735014 194.65234375 121.12109375 C193.63291033 117.80640904 191.68014781 116.09182268 189 114 C186.55108627 112.77554313 184.94267385 112.86179407 182.2038269 112.84178162 C181.19137909 112.8319928 180.17893127 112.82220398 179.13580322 112.81211853 C178.02090515 112.80636307 176.90600708 112.8006076 175.75732422 112.79467773 C174.5866037 112.78477814 173.41588318 112.77487854 172.20968628 112.76467896 C168.99504408 112.73845892 165.78040726 112.71661018 162.56572104 112.69667697 C159.20777794 112.67483113 155.84988031 112.6474356 152.49197388 112.62062073 C146.13135762 112.57067484 139.77071614 112.52574306 133.41005051 112.48259836 C126.16948316 112.43324217 118.92896142 112.37831806 111.68843818 112.32291877 C96.79233462 112.20906962 81.89618812 112.10223699 67 112 C66.81319766 112.76754891 66.62639532 113.53509783 66.4339323 114.3259058 C64.92757646 120.44467384 63.32876516 126.49801133 61.43481445 132.50756836 C61.07725964 133.65676931 61.07725964 133.65676931 60.7124815 134.82918644 C59.93248187 137.33370719 59.14785201 139.83675162 58.36328125 142.33984375 C57.80482767 144.13075086 57.24673058 145.92176917 56.68896484 147.71289062 C55.50922444 151.49970465 54.32770288 155.2859558 53.14468384 159.07174683 C50.07734332 168.8888729 47.02253532 178.7099004 43.96875 188.53125 C43.66690607 189.50173719 43.36506214 190.47222439 43.05407143 191.47212029 C35.55065638 215.60354871 28.25512389 239.7923094 21 264 C56.31 264 91.62 264 128 264 C123.70016107 270.75688974 119.39395481 277.49834836 114.9921875 284.1875 C114.43769928 285.03098999 113.88321106 285.87447998 113.31192017 286.74353027 C111.5009703 289.49658282 109.68822685 292.24844666 107.875 295 C107.24295654 295.95962646 106.61091309 296.91925293 105.9597168 297.90795898 C95.97246068 313.0641786 85.86871266 328.1379323 75.69354248 343.16845703 C66.52712074 356.71305086 57.47687983 370.32912132 48.5 384 C38.34968201 399.45790614 28.08027283 414.82872337 17.71166992 430.14099121 C6.76360107 446.31437691 -4.01342244 462.59662975 -14.72460938 478.92773438 C-15.60276306 480.26532806 -15.60276306 480.26532806 -16.49865723 481.62994385 C-17.5845558 483.28445768 -18.66921347 484.93978698 -19.75231934 486.59613037 C-22.73471698 491.14090637 -25.75047009 495.64083931 -29 500 C-29.33 500 -29.66 500 -30 500 C-29.31246894 492.2700226 -27.81079511 484.82286688 -26.18017578 477.24121094 C-25.88896055 475.87191043 -25.59812856 474.50252838 -25.30764771 473.1330719 C-24.52223211 469.4357169 -23.73141522 465.73953645 -22.93952799 462.04356289 C-22.10776986 458.15723021 -21.28084974 454.26986816 -20.45333862 450.38262939 C-19.06245535 443.85228273 -17.66834084 437.32263297 -16.27197266 430.79345703 C-14.48711544 422.44771878 -12.70726214 414.1009221 -10.92912483 405.75374985 C-9.39220186 398.53895926 -7.85329984 391.32459103 -6.31391287 384.11032581 C-5.98558261 382.57147787 -5.65731902 381.03261571 -5.32912302 379.49373913 C-4.39171628 375.09834015 -3.4532444 370.70317145 -2.51307297 366.30836296 C-2.09668717 364.36089991 -1.68131614 362.41321997 -1.26599121 360.4655304 C-1.01088776 359.27427048 -0.7557843 358.08301056 -0.49295044 356.85565186 C-0.27578432 355.83954205 -0.0586182 354.82343224 0.16512871 353.77653122 C1.40337212 348.17535062 2.71011228 342.58951344 4 337 C-28.67 337 -61.34 337 -95 337 C-85.81736048 302.56510182 -85.81736048 302.56510182 -82.1015625 289.5859375 C-81.66912754 288.06775631 -81.23694242 286.54950394 -80.80497742 285.03118896 C-79.89018447 281.81730142 -78.97398001 278.60382153 -78.05654907 275.39068604 C-75.7831935 267.4279561 -73.51833187 259.4628068 -71.25227547 251.49799728 C-70.45259749 248.68754263 -69.65263572 245.87716887 -68.85264587 243.06680298 C-63.24840562 223.3754578 -57.68052848 203.67386906 -52.11632538 183.97117996 C-50.77197253 179.21110364 -49.42723218 174.4511368 -48.08251953 169.69116211 C-46.43609204 163.86309112 -44.78969341 158.03501199 -43.14343262 152.20689392 C-37.35151873 131.70252634 -31.55662018 111.19900285 -25.75923252 90.69618225 C-23.96207184 84.34040107 -22.16532125 77.9845042 -20.3689394 71.62850285 C-19.24117663 67.63863973 -18.11298644 63.64889756 -16.98468971 59.65918541 C-16.47348552 57.85126031 -15.96243337 56.0432922 -15.45157433 54.23526955 C-10.34010083 36.14570922 -5.16901495 18.07318177 0 0 Z " fill="#8C52FF" transform="translate(149,0)"/>
</svg>
